<svg width="40" height="40" viewBox="0 0 40 40" fill="none" xmlns="http://www.w3.org/2000/svg">
<rect width="40" height="40" rx="4" fill="#53B4BA"/>
<rect width="40" height="40" rx="4" fill="url(#paint0_linear_11_1182)" fill-opacity="0.3" style="mix-blend-mode:overlay"/>
<rect x="0.75" y="0.75" width="38.5" height="38.5" rx="3.25" stroke="white" stroke-opacity="0.5" stroke-width="1.5" style="mix-blend-mode:overlay"/>
<g clip-path="url(#clip0_11_1182)">
<path d="M13.0156 14.9999C11.6344 14.9999 10.5156 13.8811 10.5156 12.4999C10.5156 11.1188 11.6344 10 13.0156 10C14.3967 10 15.5155 11.1188 15.5155 12.4999C15.5155 13.8811 14.3967 14.9999 13.0156 14.9999ZM13.0156 10.9999C12.1905 10.9999 11.5156 11.6749 11.5156 12.4999C11.5156 13.325 12.1905 13.9999 13.0156 13.9999C13.8406 13.9999 14.5156 13.325 14.5156 12.4999C14.5156 11.6749 13.8406 10.9999 13.0156 10.9999Z" fill="white"/>
<path d="M13.5468 30.4999H12.4844C11.7718 30.4999 11.1531 29.9937 11.0156 29.2936L9.96564 23.9999C9.15942 23.9688 8.51562 23.3125 8.51562 22.4999V18.4999C8.51562 17.1188 9.6344 16 11.0156 16H13.5157V16.9999H11.0156C10.1907 16.9999 9.51556 17.6749 9.51556 18.4999V22.4999C9.51556 22.7749 9.7406 22.9999 10.0156 22.9999H10.7843L11.9906 29.0999C12.0344 29.3312 12.2405 29.5 12.4782 29.5H13.5406C13.7781 29.5 13.9844 29.3312 14.0282 29.0999L14.6407 25.9999L15.6219 26.1937L15.0095 29.2936C14.8782 29.9937 14.2595 30.4999 13.5468 30.4999Z" fill="white"/>
<path d="M27.0157 14.9999C25.6344 14.9999 24.5156 13.8811 24.5156 12.4999C24.5156 11.1188 25.6344 10 27.0157 10C28.3969 10 29.5157 11.1188 29.5157 12.4999C29.5157 13.8811 28.3969 14.9999 27.0157 14.9999ZM27.0157 10.9999C26.1907 10.9999 25.5157 11.6749 25.5157 12.4999C25.5157 13.325 26.1907 13.9999 27.0157 13.9999C27.8406 13.9999 28.5157 13.325 28.5157 12.4999C28.5157 11.6749 27.8406 10.9999 27.0157 10.9999Z" fill="white"/>
<path d="M27.5471 30.4999H26.4845C25.772 30.4999 25.1533 29.9937 25.0158 29.2936L24.4033 26.1937L25.3846 25.9999L25.9971 29.0999C26.0408 29.3312 26.247 29.5 26.4845 29.5H27.5471C27.7845 29.5 27.9907 29.3312 28.0345 29.0999L29.2408 22.9999H30.0159C30.2909 22.9999 30.5157 22.7749 30.5157 22.4999V18.4999C30.5157 17.6749 29.8408 16.9999 29.0157 16.9999H26.5158V16H29.0157C30.3971 16 31.5159 17.1188 31.5159 18.4999V22.4999C31.5159 23.3125 30.8721 23.9688 30.0659 23.9999L29.0157 29.2936C28.8782 29.9937 28.2595 30.4999 27.5471 30.4999Z" fill="white"/>
<path d="M20.0156 14C18.3594 14 17.0156 12.6562 17.0156 11C17.0156 9.34381 18.3594 8 20.0156 8C21.672 8 23.0156 9.34381 23.0156 11C23.0156 12.6562 21.672 14 20.0156 14ZM20.0156 8.99994C18.9157 8.99994 18.0157 9.90009 18.0157 11C18.0157 12.0999 18.9157 13.0001 20.0156 13.0001C21.1157 13.0001 22.0157 12.0999 22.0157 11C22.0157 9.90009 21.1157 8.99994 20.0156 8.99994Z" fill="white"/>
<path d="M20.9281 32.0001H19.1031C18.2156 32.0001 17.578 31.4125 17.5156 30.5376L16.5156 24.5001C15.6906 24.5001 15.0156 23.8251 15.0156 23.0001V17.5001C15.0156 16.1188 16.1344 15 17.5156 15H22.5156C23.8968 15 25.0156 16.1188 25.0156 17.5001V23.0001C25.0156 23.8251 24.3406 24.5001 23.5156 24.5001H23.4969L22.5094 30.5814C22.4468 31.4125 21.8094 32.0001 20.9281 32.0001ZM17.5156 16.0001C16.6905 16.0001 16.0156 16.675 16.0156 17.5001V23.0001C16.0156 23.2751 16.2406 23.5001 16.5156 23.5001H17.3843L18.5093 30.4188C18.5406 30.8188 18.7405 31.0001 19.1031 31.0001H20.9281C21.2906 31.0001 21.4906 30.8188 21.5155 30.4625L22.6405 23.5001H23.5156C23.7906 23.5001 24.0156 23.2751 24.0156 23.0001V17.5001C24.0156 16.675 23.3405 16.0001 22.5156 16.0001H17.5156Z" fill="white"/>
<path d="M20.0156 20.9999H19.0157V19C19.0157 18.725 18.7906 18.4999 18.5156 18.4999C18.2406 18.4999 18.0157 18.725 18.0157 19V20.9999H17.0156V19C17.0156 18.1749 17.6907 17.5 18.5156 17.5C19.3407 17.5 20.0156 18.1749 20.0156 19V20.9999Z" fill="white"/>
<path d="M18.0156 15.5H19.0156V17.9999H18.0156V15.5Z" fill="white"/>
<path d="M21.5156 15.5H22.5157V19.0001H21.5156V15.5Z" fill="white"/>
</g>
<defs>
<linearGradient id="paint0_linear_11_1182" x1="20" y1="0" x2="20" y2="40" gradientUnits="userSpaceOnUse">
<stop stop-opacity="0"/>
<stop offset="1"/>
</linearGradient>
<clipPath id="clip0_11_1182">
<rect width="24" height="24" fill="white" transform="translate(8 8)"/>
</clipPath>
</defs>
</svg>
