<svg width="40" height="40" viewBox="0 0 40 40" fill="none" xmlns="http://www.w3.org/2000/svg">
<rect width="40" height="40" rx="4" fill="#53B4BA"/>
<rect width="40" height="40" rx="4" fill="url(#paint0_linear_11_1134)" fill-opacity="0.3" style="mix-blend-mode:overlay"/>
<rect x="0.75" y="0.75" width="38.5" height="38.5" rx="3.25" stroke="white" stroke-opacity="0.5" stroke-width="1.5" style="mix-blend-mode:overlay"/>
<g clip-path="url(#clip0_11_1134)">
<path d="M20.0002 24.6228H14.7324C14.3873 24.6228 14.1074 24.9026 14.1074 25.2478C14.1074 25.593 14.3873 25.8728 14.7324 25.8728H20.0002C20.3454 25.8728 20.6252 25.593 20.6252 25.2478C20.6252 24.9026 20.3454 24.6228 20.0002 24.6228Z" fill="white"/>
<path d="M22.9813 24.728C22.9468 24.7061 22.9109 24.6858 22.8734 24.6702C22.8358 24.6546 22.7953 24.6436 22.7562 24.6342C22.675 24.6187 22.5922 24.6187 22.5125 24.6342C22.4718 24.6436 22.4327 24.6546 22.3953 24.6702C22.3578 24.6858 22.3203 24.7061 22.2874 24.728C22.2531 24.7514 22.2203 24.7764 22.1922 24.8061C22.075 24.9218 22.0093 25.0827 22.0093 25.2483C22.0093 25.2889 22.0125 25.3296 22.0218 25.3702C22.0297 25.4092 22.0406 25.4499 22.0563 25.4874C22.0718 25.5249 22.0921 25.5608 22.1141 25.5952C22.1375 25.6296 22.1625 25.6608 22.1922 25.6905C22.2203 25.7186 22.2531 25.7452 22.2874 25.767C22.3203 25.7905 22.3578 25.8092 22.3953 25.8249C22.4327 25.8405 22.4718 25.853 22.5125 25.8608C22.5516 25.8687 22.5937 25.8733 22.6343 25.8733C22.675 25.8733 22.7156 25.8687 22.7562 25.8608C22.7953 25.853 22.8358 25.8405 22.8734 25.8249C22.9109 25.8092 22.9468 25.7905 22.9813 25.767C23.0156 25.7452 23.0469 25.7186 23.075 25.6905C23.1047 25.6608 23.1313 25.6296 23.1531 25.5952C23.1766 25.5608 23.1953 25.5249 23.2109 25.4874C23.2265 25.4499 23.239 25.4092 23.2469 25.3702C23.2547 25.3296 23.2593 25.2889 23.2593 25.2483C23.2593 25.0827 23.1921 24.9218 23.075 24.8061C23.0469 24.7764 23.0156 24.7514 22.9813 24.728Z" fill="white"/>
<path d="M25.8452 25.0093C25.8295 24.9718 25.8092 24.9342 25.7874 24.9014C25.7639 24.8671 25.7389 24.8343 25.7093 24.8061C25.6811 24.7764 25.6483 24.7514 25.6139 24.728C25.5811 24.7061 25.5436 24.6858 25.5062 24.6702C25.4687 24.6546 25.4296 24.6436 25.389 24.6342C25.1858 24.5936 24.9702 24.6608 24.8264 24.8061C24.7968 24.8343 24.7703 24.8671 24.7483 24.9014C24.7249 24.9342 24.7062 24.9718 24.6905 25.0093C24.6749 25.0468 24.6624 25.0858 24.6546 25.1265C24.6468 25.1655 24.6421 25.2077 24.6421 25.2483C24.6421 25.4124 24.7092 25.5733 24.8264 25.6889C24.9421 25.8061 25.1031 25.8733 25.2671 25.8733C25.3077 25.8733 25.3499 25.8687 25.389 25.8608C25.4296 25.853 25.4687 25.8405 25.5062 25.8249C25.5436 25.8092 25.5811 25.7905 25.6139 25.767C25.6483 25.7452 25.6811 25.7186 25.7093 25.6889C25.8265 25.5733 25.8921 25.4124 25.8921 25.2483C25.8921 25.2077 25.8889 25.1655 25.8811 25.1265C25.8718 25.0858 25.8608 25.0468 25.8452 25.0093Z" fill="white"/>
<path d="M29.2188 28.5737H28.5268V22.532C28.5268 21.5064 27.6924 20.6719 26.6667 20.6719H22.5426L22.131 18.943C21.9749 18.2877 21.3954 17.8301 20.7219 17.8301H20.625V15.377H22.8942L23.4926 17.6103C23.7248 18.4769 24.5114 19.0498 25.3688 19.0498C25.5347 19.0498 25.7033 19.0284 25.871 18.9835C26.9052 18.7064 27.5212 17.6395 27.2441 16.6051L26.915 15.377H27.9018C28.2469 15.377 28.5268 15.0972 28.5268 14.752C28.5268 14.4069 28.2469 14.127 27.9018 14.127H26.5801L25.8986 11.584L26.5671 11.4049C26.9005 11.3155 27.0984 10.9728 27.009 10.6394C26.9197 10.3059 26.5765 10.1083 26.2436 10.1975L24.9719 10.5382C24.9718 10.5382 24.9716 10.5382 24.9715 10.5383L23.6994 10.8791L21.1552 11.5608C20.8218 11.6502 20.6239 11.9929 20.7133 12.3263C20.7881 12.6055 21.0406 12.7897 21.3165 12.7897C21.3701 12.7897 21.4246 12.7828 21.4787 12.7683L22.1472 12.5891L22.5593 14.127H17.4407L17.8528 12.5891L18.5213 12.7683C18.5754 12.7828 18.6299 12.7897 18.6835 12.7897C18.9594 12.7897 19.2119 12.6055 19.2867 12.3263C19.3761 11.9929 19.1782 11.6502 18.8448 11.5608L16.3006 10.8791L15.0285 10.5383C15.0284 10.5382 15.0282 10.5382 15.0281 10.5382L13.7564 10.1975C13.4229 10.1082 13.0803 10.3059 12.991 10.6394C12.9016 10.9728 13.0995 11.3155 13.4329 11.4049L14.1014 11.584L13.4198 14.127H12.0982C11.7531 14.127 11.4732 14.4069 11.4732 14.752C11.4732 15.0972 11.7531 15.377 12.0982 15.377H13.0849L12.7557 16.6052C12.4788 17.6395 13.0948 18.7064 14.129 18.9835C14.2967 19.0284 14.4652 19.0498 14.6312 19.0498C15.4886 19.0498 16.2752 18.4769 16.5074 17.6102L17.1058 15.377H19.375V17.8301H19.2781C18.6046 17.8301 18.0251 18.2877 17.869 18.943L17.4574 20.6719H13.3333C12.3076 20.6719 11.4732 21.5064 11.4732 22.532V28.5737H10.7812C10.4361 28.5737 10.1562 28.8535 10.1562 29.1987C10.1562 29.5438 10.4361 29.8237 10.7812 29.8237H12.0982H27.9018H29.2188C29.5639 29.8237 29.8438 29.5438 29.8438 29.1987C29.8438 28.8535 29.5639 28.5737 29.2188 28.5737ZM24.6913 11.9075L26.0367 16.9285C26.1354 17.2971 25.916 17.6773 25.5475 17.776C25.1791 17.8746 24.7987 17.6553 24.6999 17.2868L23.3545 12.2657L24.6913 11.9075ZM15.3001 17.2867C15.2013 17.6553 14.8209 17.8745 14.4525 17.776C14.084 17.6773 13.8646 17.2971 13.9632 16.9286L15.3087 11.9075L16.6455 12.2657L15.3001 17.2867ZM19.0851 19.2326C19.1064 19.1428 19.1858 19.0801 19.2781 19.0801H20.7219C20.8142 19.0801 20.8936 19.1428 20.9149 19.2325L21.2576 20.6719H18.7424L19.0851 19.2326ZM12.7232 28.5737V22.532C12.7232 22.1956 12.997 21.9219 13.3333 21.9219H17.7333C17.7998 21.9456 17.8692 21.9618 17.9416 21.9618H22.0584C22.1308 21.9618 22.2002 21.9456 22.2667 21.9219H26.6667C27.003 21.9219 27.2768 22.1956 27.2768 22.532V28.5737H12.7232Z" fill="white"/>
</g>
<defs>
<linearGradient id="paint0_linear_11_1134" x1="20" y1="0" x2="20" y2="40" gradientUnits="userSpaceOnUse">
<stop stop-opacity="0"/>
<stop offset="1"/>
</linearGradient>
<clipPath id="clip0_11_1134">
<rect width="20" height="20" fill="white" transform="translate(10 10)"/>
</clipPath>
</defs>
</svg>
