<svg width="40" height="40" viewBox="0 0 40 40" fill="none" xmlns="http://www.w3.org/2000/svg">
<rect width="40" height="40" rx="4" fill="#53B4BA"/>
<rect width="40" height="40" rx="4" fill="url(#paint0_linear_11_1108)" fill-opacity="0.3" style="mix-blend-mode:overlay"/>
<rect x="0.75" y="0.75" width="38.5" height="38.5" rx="3.25" stroke="white" stroke-opacity="0.5" stroke-width="1.5" style="mix-blend-mode:overlay"/>
<path d="M27.5 30.5H14C13.6023 30.4996 13.221 30.3414 12.9398 30.0602C12.6586 29.779 12.5004 29.3977 12.5 29V28C12.5 27.8674 12.5527 27.7402 12.6464 27.6464C12.7402 27.5527 12.8674 27.5 13 27.5C13.1326 27.5 13.2598 27.5527 13.3536 27.6464C13.4473 27.7402 13.5 27.8674 13.5 28V29C13.5002 29.1326 13.5529 29.2596 13.6466 29.3534C13.7404 29.4471 13.8674 29.4998 14 29.5H27.5C27.6326 29.4999 27.7597 29.4471 27.8534 29.3534C27.9471 29.2597 27.9999 29.1326 28 29V13.5C27.9999 13.3674 27.9471 13.2403 27.8534 13.1466C27.7597 13.0529 27.6326 13.0001 27.5 13H26.085C25.9524 13 25.8252 12.9473 25.7314 12.8536C25.6376 12.7598 25.585 12.6326 25.585 12.5C25.585 12.3674 25.6376 12.2402 25.7314 12.1464C25.8252 12.0527 25.9524 12 26.085 12H27.5C27.8977 12.0004 28.279 12.1586 28.5602 12.4398C28.8414 12.721 28.9996 13.1023 29 13.5V29C28.9996 29.3977 28.8414 29.779 28.5602 30.0602C28.279 30.3414 27.8977 30.4996 27.5 30.5Z" fill="white"/>
<path d="M25.5 28.5H12.5C12.1023 28.4996 11.721 28.3414 11.4398 28.0602C11.1586 27.779 11.0004 27.3977 11 27V11C11.0004 10.6023 11.1586 10.221 11.4398 9.93982C11.721 9.65861 12.1023 9.50044 12.5 9.5H23.5317C23.7517 9.49974 23.969 9.54797 24.1682 9.64127C24.3673 9.73457 24.5435 9.87064 24.6841 10.0398L26.6523 12.4019C26.8768 12.6715 26.9998 13.0112 27 13.3621V27C26.9996 27.3977 26.8414 27.779 26.5602 28.0602C26.279 28.3414 25.8977 28.4996 25.5 28.5ZM12.5 10.5C12.3674 10.5002 12.2404 10.5529 12.1466 10.6466C12.0529 10.7404 12.0002 10.8674 12 11V27C12.0002 27.1326 12.0529 27.2596 12.1466 27.3534C12.2404 27.4471 12.3674 27.4998 12.5 27.5H25.5C25.6326 27.4999 25.7597 27.4471 25.8534 27.3534C25.9471 27.2597 25.9999 27.1326 26 27V13.3621C26 13.2452 25.959 13.132 25.8843 13.0422L23.9155 10.6799C23.8687 10.6236 23.8101 10.5782 23.7437 10.5471C23.6774 10.516 23.605 10.4999 23.5317 10.5H12.5Z" fill="white"/>
<path d="M26.4302 13.5H24.5C24.2349 13.4997 23.9807 13.3942 23.7932 13.2068C23.6058 13.0193 23.5003 12.7651 23.5 12.5V10.1201C23.5 9.98751 23.5527 9.86033 23.6464 9.76656C23.7402 9.6728 23.8674 9.62012 24 9.62012C24.1326 9.62012 24.2598 9.6728 24.3536 9.76656C24.4473 9.86033 24.5 9.98751 24.5 10.1201V12.5H26.4302C26.5628 12.5 26.69 12.5527 26.7837 12.6464C26.8775 12.7402 26.9302 12.8674 26.9302 13C26.9302 13.1326 26.8775 13.2598 26.7837 13.3536C26.69 13.4473 26.5628 13.5 26.4302 13.5Z" fill="white"/>
<path d="M16.1635 15.3056C16.0309 15.3056 15.9038 15.2529 15.81 15.1591L14.9196 14.2685C14.873 14.2221 14.8361 14.167 14.8108 14.1063C14.7856 14.0456 14.7725 13.9805 14.7725 13.9148C14.7724 13.8491 14.7853 13.7839 14.8104 13.7232C14.8355 13.6624 14.8724 13.6073 14.9189 13.5608C14.9654 13.5143 15.0206 13.4774 15.0813 13.4523C15.1421 13.4272 15.2072 13.4143 15.2729 13.4143C15.3387 13.4144 15.4037 13.4274 15.4644 13.4527C15.5251 13.4779 15.5803 13.5149 15.6266 13.5615L16.1635 14.0983L17.591 12.6708C17.6374 12.6244 17.6925 12.5876 17.7532 12.5625C17.8139 12.5373 17.8789 12.5244 17.9445 12.5244C18.0102 12.5244 18.0752 12.5373 18.1358 12.5625C18.1965 12.5876 18.2516 12.6244 18.298 12.6708C18.3445 12.7173 18.3813 12.7724 18.4064 12.833C18.4315 12.8937 18.4445 12.9587 18.4445 13.0244C18.4445 13.09 18.4315 13.155 18.4064 13.2157C18.3813 13.2763 18.3445 13.3315 18.298 13.3779L16.517 15.1591C16.4233 15.2529 16.2961 15.3056 16.1635 15.3056Z" fill="white"/>
<path d="M16 17.25C15.4067 17.25 14.8266 17.0741 14.3333 16.7444C13.8399 16.4148 13.4554 15.9462 13.2284 15.3981C13.0013 14.8499 12.9419 14.2467 13.0576 13.6647C13.1734 13.0828 13.4591 12.5482 13.8787 12.1287C14.2982 11.7091 14.8328 11.4234 15.4147 11.3076C15.9967 11.1919 16.5999 11.2513 17.1481 11.4784C17.6962 11.7054 18.1648 12.0899 18.4944 12.5833C18.8241 13.0766 19 13.6567 19 14.25C18.9991 15.0454 18.6828 15.8079 18.1204 16.3704C17.5579 16.9328 16.7954 17.2491 16 17.25ZM16 12.25C15.6044 12.25 15.2178 12.3673 14.8889 12.5871C14.56 12.8068 14.3036 13.1192 14.1522 13.4846C14.0009 13.8501 13.9613 14.2522 14.0384 14.6402C14.1156 15.0281 14.3061 15.3845 14.5858 15.6642C14.8655 15.9439 15.2219 16.1344 15.6098 16.2116C15.9978 16.2887 16.3999 16.2491 16.7654 16.0978C17.1308 15.9464 17.4432 15.69 17.6629 15.3611C17.8827 15.0322 18 14.6456 18 14.25C17.9994 13.7198 17.7885 13.2114 17.4135 12.8365C17.0386 12.4615 16.5302 12.2506 16 12.25Z" fill="white"/>
<path d="M23.25 17.5H19.75C19.6174 17.5 19.4902 17.4473 19.3964 17.3536C19.3027 17.2598 19.25 17.1326 19.25 17C19.25 16.8674 19.3027 16.7402 19.3964 16.6464C19.4902 16.5527 19.6174 16.5 19.75 16.5H23.25C23.3826 16.5 23.5098 16.5527 23.6036 16.6464C23.6973 16.7402 23.75 16.8674 23.75 17C23.75 17.1326 23.6973 17.2598 23.6036 17.3536C23.5098 17.4473 23.3826 17.5 23.25 17.5Z" fill="white"/>
<path d="M23.25 19.5H14.75C14.6174 19.5 14.4902 19.4473 14.3964 19.3536C14.3027 19.2598 14.25 19.1326 14.25 19C14.25 18.8674 14.3027 18.7402 14.3964 18.6464C14.4902 18.5527 14.6174 18.5 14.75 18.5H23.25C23.3826 18.5 23.5098 18.5527 23.6036 18.6464C23.6973 18.7402 23.75 18.8674 23.75 19C23.75 19.1326 23.6973 19.2598 23.6036 19.3536C23.5098 19.4473 23.3826 19.5 23.25 19.5Z" fill="white"/>
<path d="M23.25 21.5H14.75C14.6174 21.5 14.4902 21.4473 14.3964 21.3536C14.3027 21.2598 14.25 21.1326 14.25 21C14.25 20.8674 14.3027 20.7402 14.3964 20.6464C14.4902 20.5527 14.6174 20.5 14.75 20.5H23.25C23.3826 20.5 23.5098 20.5527 23.6036 20.6464C23.6973 20.7402 23.75 20.8674 23.75 21C23.75 21.1326 23.6973 21.2598 23.6036 21.3536C23.5098 21.4473 23.3826 21.5 23.25 21.5Z" fill="white"/>
<path d="M23.25 23.5H14.75C14.6174 23.5 14.4902 23.4473 14.3964 23.3536C14.3027 23.2598 14.25 23.1326 14.25 23C14.25 22.8674 14.3027 22.7402 14.3964 22.6464C14.4902 22.5527 14.6174 22.5 14.75 22.5H23.25C23.3826 22.5 23.5098 22.5527 23.6036 22.6464C23.6973 22.7402 23.75 22.8674 23.75 23C23.75 23.1326 23.6973 23.2598 23.6036 23.3536C23.5098 23.4473 23.3826 23.5 23.25 23.5Z" fill="white"/>
<path d="M18.25 25.5H14.75C14.6174 25.5 14.4902 25.4473 14.3964 25.3536C14.3027 25.2598 14.25 25.1326 14.25 25C14.25 24.8674 14.3027 24.7402 14.3964 24.6464C14.4902 24.5527 14.6174 24.5 14.75 24.5H18.25C18.3826 24.5 18.5098 24.5527 18.6036 24.6464C18.6973 24.7402 18.75 24.8674 18.75 25C18.75 25.1326 18.6973 25.2598 18.6036 25.3536C18.5098 25.4473 18.3826 25.5 18.25 25.5Z" fill="white"/>
<defs>
<linearGradient id="paint0_linear_11_1108" x1="20" y1="0" x2="20" y2="40" gradientUnits="userSpaceOnUse">
<stop stop-opacity="0"/>
<stop offset="1"/>
</linearGradient>
</defs>
</svg>
