<svg width="40" height="40" viewBox="0 0 40 40" fill="none" xmlns="http://www.w3.org/2000/svg">
<rect width="40" height="40" rx="4" fill="#53B4BA"/>
<rect width="40" height="40" rx="4" fill="url(#paint0_linear_11_1124)" fill-opacity="0.3" style="mix-blend-mode:overlay"/>
<rect x="0.75" y="0.75" width="38.5" height="38.5" rx="3.25" stroke="white" stroke-opacity="0.5" stroke-width="1.5" style="mix-blend-mode:overlay"/>
<path d="M27.5 28.25H25.953V27.3828C25.953 26.4751 25.6181 25.6082 25.0206 24.9379C25.0959 24.8696 25.1698 24.7992 25.2422 24.7267C26.3958 23.5731 27.0311 22.0443 27.0311 20.4219C27.0311 19.6106 26.8729 18.8235 26.5611 18.08C26.5972 17.9168 26.6168 17.7474 26.6168 17.5735C26.6168 16.8766 26.3108 16.2503 25.8264 15.8206L25.9681 15.5752C26.2736 15.0459 26.1947 14.3988 25.819 13.9584L26.391 12.9677C26.4718 12.9675 26.5531 12.9569 26.6334 12.9354C26.8756 12.8705 27.0778 12.7155 27.2027 12.4991L27.9059 11.2812C28.0353 11.057 27.9585 10.7703 27.7343 10.6409L23.2689 8.0628C23.1612 8.0006 23.0331 7.98382 22.9132 8.01597C22.793 8.04818 22.6907 8.12669 22.6285 8.23436L21.9254 9.45222C21.7524 9.75194 21.765 10.1081 21.926 10.3886L21.3537 11.3799C21.1503 11.3423 20.9391 11.3501 20.733 11.4054C20.3694 11.5028 20.066 11.7351 19.8788 12.0595L17.3006 16.525C17.1133 16.8494 17.0638 17.2282 17.1612 17.5918C17.2165 17.798 17.3153 17.9848 17.4495 18.1421L16.9406 19.0235C16.8157 19.2399 16.7826 19.4925 16.8476 19.7348C16.9125 19.977 17.0674 20.1792 17.2838 20.3041L20.1255 21.9448C20.2727 22.0298 20.4337 22.0702 20.5926 22.0702C20.9169 22.0702 21.2327 21.9021 21.4061 21.6016L21.9152 20.7199C21.9984 20.7352 22.0828 20.7435 22.1678 20.7435C22.2904 20.7435 22.4139 20.7274 22.5357 20.6947C22.8993 20.5973 23.2027 20.365 23.3899 20.0406L23.5311 19.7962C23.736 19.8647 23.9532 19.9058 24.1787 19.9148C24.205 20.0821 24.2186 20.2517 24.2186 20.4219C24.2186 21.2933 23.8759 22.1159 23.2536 22.7382C22.6314 23.3605 21.8087 23.7031 20.9374 23.7031H19.2967C19.0378 23.7031 18.8279 23.913 18.8279 24.1719C18.8279 24.4308 19.0378 24.6406 19.2967 24.6406H20.9374C21.1959 24.6406 21.4061 24.8509 21.4061 25.1094C21.4061 25.3678 21.1959 25.5781 20.9374 25.5781H13.4376C13.1791 25.5781 12.9688 25.3678 12.9688 25.1094C12.9688 24.8509 13.1791 24.6406 13.4376 24.6406H15.0779C15.3368 24.6406 15.5467 24.4308 15.5467 24.1719C15.5467 23.913 15.3368 23.7031 15.0779 23.7031H13.4376C12.6622 23.7031 12.0313 24.334 12.0313 25.1094C12.0313 25.8848 12.6622 26.5156 13.4376 26.5156H14.6227V28.25H12.5C11.7246 28.25 11.0938 28.8808 11.0938 29.6562V31.5312C11.0938 31.7901 11.3037 32 11.5625 32H28.4375C28.6963 32 28.9062 31.7901 28.9062 31.5312V29.6562C28.9062 28.8808 28.2754 28.25 27.5 28.25ZM25.0155 27.3828V28.25H24.078V27.3828C24.078 26.8215 23.8204 26.3194 23.4173 25.9881C23.7153 25.8545 24.0028 25.6963 24.2776 25.5148C24.7496 26.0207 25.0155 26.6856 25.0155 27.3828ZM20.9374 26.5156H22.2733C22.7515 26.5156 23.1405 26.9046 23.1405 27.3828V28.25H19.7789V26.5156H20.9374ZM24.2731 18.9797C23.4976 18.9797 22.8668 18.3489 22.8668 17.5735C22.8668 16.7981 23.4976 16.1672 24.2731 16.1672C25.0485 16.1672 25.6793 16.7981 25.6793 17.5735C25.6793 18.3489 25.0485 18.9797 24.2731 18.9797ZM22.2057 11.7792L22.6745 10.9672L25.5162 12.6078L25.0474 13.4198L22.2057 11.7792ZM23.206 9.10905L26.8596 11.2184L26.3909 12.0303L22.7373 9.92092L23.206 9.10905ZM17.7526 19.4923L18.2214 18.6803L21.063 20.321L20.5943 21.1329L17.7526 19.4923ZM22.5781 19.5719C22.516 19.6794 22.4148 19.7565 22.2931 19.7892C22.1715 19.8217 22.0453 19.8055 21.9377 19.7434L18.2846 17.6343C18.2845 17.6342 18.2844 17.6341 18.2842 17.634C18.2842 17.634 18.2841 17.634 18.284 17.634C18.1765 17.5718 18.0994 17.4707 18.0669 17.3491C18.0343 17.2275 18.0505 17.1013 18.1126 16.9937L20.6907 12.5282C20.7528 12.4207 20.854 12.3436 20.9757 12.3109C21.0972 12.2784 21.2235 12.2946 21.331 12.3567L24.9846 14.4661C25.2084 14.5953 25.2854 14.8825 25.1562 15.1064L25.0151 15.3508C24.7817 15.2726 24.5324 15.2297 24.2731 15.2297C22.9808 15.2297 21.9294 16.2811 21.9294 17.5734C21.9294 18.2703 22.2354 18.8968 22.7198 19.3264L22.5781 19.5719ZM22.1806 24.4531C22.8275 24.2527 23.4217 23.8959 23.9166 23.4011C24.7159 22.6017 25.1561 21.5437 25.1561 20.4219C25.1561 20.2013 25.1384 19.9815 25.1041 19.7646C25.4255 19.6423 25.7131 19.4512 25.9492 19.2095C26.0451 19.6038 26.0936 20.0091 26.0936 20.4219C26.0936 21.7939 25.5558 23.0873 24.5793 24.0638C23.9386 24.7046 23.1614 25.1564 22.3152 25.3914C22.3338 25.3003 22.3436 25.2059 22.3436 25.1094C22.3436 24.8725 22.2845 24.6492 22.1806 24.4531ZM15.5602 26.5156H18.8414V28.25H15.5602V26.5156ZM27.9687 31.0625H12.0312V29.6562C12.0312 29.3978 12.2415 29.1875 12.5 29.1875H27.5C27.7584 29.1875 27.9687 29.3978 27.9687 29.6562V31.0625Z" fill="white"/>
<path d="M17.6564 24.1719C17.6564 23.913 17.4465 23.7031 17.1877 23.7031H17.1873C16.9285 23.7031 16.7188 23.913 16.7188 24.1719C16.7188 24.4308 16.9288 24.6406 17.1877 24.6406C17.4466 24.6406 17.6564 24.4308 17.6564 24.1719Z" fill="white"/>
<defs>
<linearGradient id="paint0_linear_11_1124" x1="20" y1="0" x2="20" y2="40" gradientUnits="userSpaceOnUse">
<stop stop-opacity="0"/>
<stop offset="1"/>
</linearGradient>
</defs>
</svg>
