<svg width="40" height="40" viewBox="0 0 40 40" fill="none" xmlns="http://www.w3.org/2000/svg">
<rect width="40" height="40" rx="4" fill="#53B4BA"/>
<rect width="40" height="40" rx="4" fill="url(#paint0_linear_11_1175)" fill-opacity="0.3" style="mix-blend-mode:overlay"/>
<rect x="0.75" y="0.75" width="38.5" height="38.5" rx="3.25" stroke="white" stroke-opacity="0.5" stroke-width="1.5" style="mix-blend-mode:overlay"/>
<path d="M20.0005 30.291C19.9047 30.2908 19.8102 30.2681 19.7248 30.2245C19.6603 30.192 18.1237 29.4051 16.1163 27.945C14.2638 26.5953 11.6478 24.3945 9.71863 21.5632C9.43596 21.1497 9.1813 20.7177 8.95637 20.2702C8.91006 20.1775 8.88821 20.0745 8.8929 19.9709C8.89758 19.8674 8.92864 19.7668 8.98313 19.6786C9.03761 19.5904 9.11373 19.5176 9.20428 19.467C9.29483 19.4165 9.3968 19.39 9.50049 19.39H13.4123L14.4036 17.9709C14.4634 17.8852 14.5442 17.8163 14.6383 17.771C14.7324 17.7256 14.8366 17.7052 14.9409 17.7118C15.0452 17.7184 15.146 17.7518 15.2336 17.8086C15.3212 17.8655 15.3927 17.944 15.4412 18.0365L16.6308 20.3071L18.6321 16.0214C18.6858 15.906 18.7743 15.8102 18.8853 15.7478C18.9963 15.6853 19.124 15.6592 19.2506 15.6732C19.3772 15.6873 19.4962 15.7407 19.5908 15.8259C19.6854 15.9111 19.7508 16.0239 19.7779 16.1484L21.0267 21.8328L22.788 18.0621C22.8359 17.9594 22.9116 17.8721 23.0065 17.8101C23.1014 17.7481 23.2118 17.7138 23.3251 17.7112C23.4385 17.7086 23.5503 17.7377 23.648 17.7953C23.7456 17.8528 23.8253 17.9365 23.8779 18.037L25.1733 20.5102L25.773 19.6507C25.829 19.5704 25.9036 19.5049 25.9905 19.4596C26.0773 19.4144 26.1738 19.3907 26.2717 19.3908H30.117C31.2762 16.8076 30.9157 14.2354 29.1248 12.4531C27.0785 10.4156 23.7489 10.4156 21.7022 12.4531C21.3551 12.7985 20.9181 13.2076 20.4554 13.641L20.4169 13.6767C20.3042 13.7822 20.1557 13.8409 20.0013 13.8409C19.847 13.8409 19.6984 13.7822 19.5857 13.6767L19.5452 13.639C19.0826 13.204 18.6463 12.7985 18.2996 12.4518C16.2533 10.4148 12.9233 10.4148 10.877 12.4518C9.52279 13.7996 8.97138 15.6233 9.31925 17.5861C9.34757 17.7449 9.31166 17.9084 9.21943 18.0407C9.12721 18.173 8.9862 18.2632 8.82744 18.2916C8.7488 18.3056 8.66816 18.304 8.59014 18.2868C8.51212 18.2697 8.43824 18.2373 8.37273 18.1916C8.30722 18.1459 8.25135 18.0877 8.20832 18.0204C8.16529 17.9531 8.13594 17.878 8.12195 17.7994C7.91314 16.628 7.97274 15.4923 8.29873 14.424C8.62765 13.351 9.21877 12.377 10.0187 11.5898C12.5386 9.08171 16.6381 9.08171 19.158 11.5898C19.3976 11.8287 19.6875 12.104 20.0005 12.3983C20.3135 12.104 20.6034 11.8307 20.8435 11.5898C23.3629 9.08171 27.4629 9.08171 29.9824 11.5898C31.065 12.6558 31.7565 14.0557 31.9452 15.5633C32.1361 17.0821 31.8235 18.7092 31.0447 20.2694C30.993 20.3729 30.9128 20.4594 30.8136 20.519C30.7145 20.5785 30.6004 20.6085 30.4847 20.6055H26.5895L25.5978 22.0246C25.5383 22.1106 25.4576 22.1798 25.3636 22.2255C25.2695 22.2712 25.1653 22.2919 25.0609 22.2856C24.9565 22.2793 24.8555 22.2462 24.7677 22.1894C24.6799 22.1327 24.6081 22.0543 24.5594 21.9617L23.3698 19.6912L21.3685 23.9748C21.3146 24.0898 21.2261 24.1851 21.1153 24.2472C21.0045 24.3094 20.877 24.3352 20.7508 24.3212C20.6245 24.3072 20.5058 24.2541 20.4113 24.1692C20.3169 24.0843 20.2513 23.9719 20.2239 23.8479L18.9751 18.1635L17.2138 21.9342C17.1659 22.0368 17.0902 22.124 16.9953 22.1859C16.9004 22.2478 16.7902 22.282 16.6769 22.2847C16.5636 22.2873 16.4519 22.2582 16.3543 22.2007C16.2567 22.1432 16.177 22.0596 16.1244 21.9593L14.829 19.486L14.2285 20.3452C14.1725 20.4254 14.0979 20.4909 14.0112 20.5362C13.9244 20.5814 13.828 20.6051 13.7302 20.6051H10.5445C10.6025 20.6963 10.6625 20.7867 10.7237 20.8767C12.5495 23.556 15.0434 25.6566 16.8141 26.9488C17.8333 27.695 18.8973 28.378 20.0001 28.9939C21.1115 28.3805 25.346 25.8938 28.4096 22.0534C28.4587 21.989 28.5202 21.9351 28.5904 21.8948C28.6606 21.8545 28.7382 21.8287 28.8186 21.8188C28.8989 21.8088 28.9804 21.8151 29.0583 21.8371C29.1362 21.8591 29.209 21.8964 29.2723 21.9469C29.3356 21.9973 29.3881 22.0599 29.4269 22.131C29.4657 22.2021 29.4899 22.2801 29.4981 22.3607C29.5063 22.4412 29.4984 22.5226 29.4747 22.6C29.4511 22.6774 29.4122 22.7494 29.3604 22.8116C27.4215 25.2443 25.0585 27.1268 23.4177 28.2795C21.6398 29.5283 20.3314 30.1985 20.2762 30.2257C20.1907 30.2689 20.0963 30.2912 20.0005 30.291Z" fill="white"/>
<defs>
<linearGradient id="paint0_linear_11_1175" x1="20" y1="0" x2="20" y2="40" gradientUnits="userSpaceOnUse">
<stop stop-opacity="0"/>
<stop offset="1"/>
</linearGradient>
</defs>
</svg>
