<svg width="40" height="40" viewBox="0 0 40 40" fill="none" xmlns="http://www.w3.org/2000/svg">
<rect width="40" height="40" rx="4" fill="#53B4BA"/>
<rect width="40" height="40" rx="4" fill="url(#paint0_linear_11_1145)" fill-opacity="0.3" style="mix-blend-mode:overlay"/>
<rect x="0.75" y="0.75" width="38.5" height="38.5" rx="3.25" stroke="white" stroke-opacity="0.5" stroke-width="1.5" style="mix-blend-mode:overlay"/>
<path fill-rule="evenodd" clip-rule="evenodd" d="M27.4849 28.4741C25.7804 28.4741 24.3936 27.0872 24.3936 25.3827C24.3936 23.6781 25.7804 22.291 27.4849 22.291C29.1894 22.291 30.5763 23.6781 30.5763 25.3827C30.5763 27.0872 29.1897 28.4741 27.4849 28.4741ZM27.4849 23.4159C26.4004 23.4159 25.5183 24.2983 25.5183 25.3827C25.5183 26.467 26.4006 27.3493 27.4849 27.3493C28.5693 27.3493 29.4515 26.467 29.4515 25.3827C29.4515 24.2983 28.5695 23.4159 27.4849 23.4159Z" fill="white"/>
<path fill-rule="evenodd" clip-rule="evenodd" d="M23.535 26.0003H15.8157C15.6645 26.0003 15.5196 25.9393 15.4138 25.8316C15.3079 25.7234 15.2502 25.5773 15.2533 25.4264L15.2538 25.3831C15.2538 24.2985 14.3714 23.4162 13.287 23.4162C12.2027 23.4162 11.3204 24.2987 11.3204 25.3831L11.321 25.4264C11.3241 25.5773 11.2663 25.7234 11.1605 25.8316C11.0546 25.9395 10.9099 26.0003 10.7586 26.0003H8.56434C8.25358 26.0003 8.00195 25.7486 8.00195 25.4379V21.6368C8.00195 21.3261 8.25358 21.0744 8.56434 21.0744C8.87483 21.0744 9.12674 21.3261 9.12674 21.6368V24.8754L10.2375 24.8755C10.4804 23.4114 11.7556 22.2914 13.2873 22.2914C14.8193 22.2914 16.0945 23.4114 16.3373 24.8755H22.9725V14.9021H9.12674V19.8887C9.12674 20.1992 8.87483 20.4511 8.56435 20.4511C8.25359 20.4511 8.00196 20.1992 8.00196 19.8887V14.3397C8.00196 14.029 8.25359 13.7773 8.56435 13.7773H23.5352C23.846 13.7773 24.0977 14.029 24.0977 14.3397V25.4379C24.0974 25.7485 23.8457 26.0003 23.535 26.0003Z" fill="white"/>
<path fill-rule="evenodd" clip-rule="evenodd" d="M13.2872 28.4741C11.5827 28.4741 10.1958 27.0872 10.1958 25.3827C10.1958 23.6781 11.5827 22.291 13.2872 22.291C14.992 22.291 16.3788 23.6781 16.3788 25.3827C16.3788 27.0872 14.992 28.4741 13.2872 28.4741ZM13.2872 23.4159C12.2028 23.4159 11.3206 24.2983 11.3206 25.3827C11.3206 26.467 12.2028 27.3493 13.2872 27.3493C14.3718 27.3493 15.254 26.467 15.254 25.3827C15.254 24.2983 14.3718 23.4159 13.2872 23.4159Z" fill="white"/>
<path fill-rule="evenodd" clip-rule="evenodd" d="M21.6548 26.0002H17.4296C17.1189 26.0002 16.8672 25.7485 16.8672 25.4378V19.2167C16.8672 18.9059 17.1189 18.6543 17.4296 18.6543H21.6546C21.9653 18.6543 22.217 18.9059 22.217 19.2167V25.4375C22.217 25.7484 21.9653 26.0002 21.6548 26.0002ZM17.992 24.8754H21.0922V19.7791H17.992V24.8754Z" fill="white"/>
<path fill-rule="evenodd" clip-rule="evenodd" d="M20.0697 23.3446C19.759 23.3446 19.5073 23.0929 19.5073 22.7822V21.8722C19.5073 21.5615 19.759 21.3098 20.0697 21.3098C20.3805 21.3098 20.6321 21.5615 20.6321 21.8722V22.7822C20.6321 23.0929 20.3804 23.3446 20.0697 23.3446Z" fill="white"/>
<path fill-rule="evenodd" clip-rule="evenodd" d="M21.6553 17.3406H16.9979C16.6872 17.3406 16.4355 17.0889 16.4355 16.7782C16.4355 16.4675 16.6872 16.2158 16.9979 16.2158H21.6553C21.966 16.2158 22.2177 16.4675 22.2177 16.7782C22.2177 17.0889 21.9658 17.3406 21.6553 17.3406Z" fill="white"/>
<path fill-rule="evenodd" clip-rule="evenodd" d="M17.3401 14.9024H14.7592C14.4485 14.9024 14.1968 14.6507 14.1968 14.34V12.8717C14.1968 12.1294 14.8006 11.5256 15.5429 11.5256H16.5567C17.299 11.5256 17.9028 12.1294 17.9028 12.8717V14.34C17.9025 14.6504 17.6508 14.9024 17.3401 14.9024ZM15.3214 13.7776H16.7777V12.8717C16.7777 12.7517 16.6764 12.6504 16.5565 12.6504H15.5427C15.4228 12.6504 15.3214 12.7517 15.3214 12.8717V13.7776Z" fill="white"/>
<path fill-rule="evenodd" clip-rule="evenodd" d="M30.2896 28.4741H10.702C10.3916 28.4741 10.1396 28.2225 10.1396 27.9118C10.1396 27.6011 10.3916 27.3494 10.702 27.3494H30.2898C30.6005 27.3494 30.8522 27.6011 30.8522 27.9118C30.8522 28.2225 30.6003 28.4741 30.2896 28.4741Z" fill="white"/>
<path fill-rule="evenodd" clip-rule="evenodd" d="M14.096 21.5553H12.0649C11.7542 21.5553 11.5025 21.3036 11.5025 20.9929V20.1749H10.6845C10.3738 20.1749 10.1221 19.923 10.1221 19.6125V17.5812C10.1221 17.2705 10.3738 17.0188 10.6845 17.0188H11.5025V16.2008C11.5025 15.8901 11.7542 15.6384 12.0649 15.6384H14.096C14.4067 15.6384 14.6583 15.8901 14.6583 16.2008V17.0188H15.4766C15.7873 17.0188 16.039 17.2705 16.039 17.5812V19.6123C16.039 19.923 15.7873 20.1747 15.4766 20.1747H14.6583V20.9927C14.6582 21.3036 14.4065 21.5553 14.096 21.5553ZM12.6273 20.4305H13.5336V19.6123C13.5336 19.3018 13.7855 19.0499 14.096 19.0499H14.9142V18.1436H14.096C13.7855 18.1436 13.5336 17.8919 13.5336 17.5812V16.7633H12.6273V17.5812C12.6273 17.8919 12.3757 18.1436 12.0649 18.1436H11.2469V19.0499H12.0649C12.3757 19.0499 12.6273 19.3018 12.6273 19.6123V20.4305Z" fill="white"/>
<path fill-rule="evenodd" clip-rule="evenodd" d="M31.4355 26.0001H30.0139C29.8627 26.0001 29.7178 25.9391 29.612 25.8311C29.5061 25.7232 29.4483 25.5771 29.4517 25.4259L29.4523 25.383C29.4523 24.2984 28.5698 23.4162 27.4854 23.4162C26.4011 23.4162 25.5189 24.2987 25.5189 25.383L25.5192 25.4259C25.5225 25.5771 25.4648 25.7232 25.3589 25.8311C25.2531 25.9393 25.1083 26.0001 24.957 26.0001H23.5355C23.2248 26.0001 22.9731 25.7484 22.9731 25.4377V15.2084C22.9731 14.8979 23.2248 14.646 23.5355 14.646H25.9392C26.2499 14.646 26.5016 14.8979 26.5016 15.2084C26.5016 15.5191 26.2499 15.7708 25.9392 15.7708H24.0979V24.8753H24.4356C24.6785 23.4112 25.9535 22.2914 27.4855 22.2914C29.0174 22.2914 30.2925 23.4111 30.5354 24.8753H30.8731V19.1584C30.8731 17.4105 29.5087 15.9275 27.7669 15.7826C27.4573 15.7568 27.2273 15.485 27.2531 15.1755C27.2789 14.8659 27.5464 14.6345 27.8602 14.6617C30.1803 14.8548 31.9978 16.83 31.9978 19.1584V25.4375C31.9976 25.7483 31.746 26.0001 31.4355 26.0001Z" fill="white"/>
<path fill-rule="evenodd" clip-rule="evenodd" d="M31.4352 20.8533H23.535C23.2243 20.8533 22.9727 20.6016 22.9727 20.2909C22.9727 19.9801 23.2243 19.7285 23.535 19.7285H31.4352C31.7459 19.7285 31.9975 19.9801 31.9975 20.2909C31.9975 20.6016 31.7457 20.8533 31.4352 20.8533Z" fill="white"/>
<defs>
<linearGradient id="paint0_linear_11_1145" x1="20" y1="0" x2="20" y2="40" gradientUnits="userSpaceOnUse">
<stop stop-opacity="0"/>
<stop offset="1"/>
</linearGradient>
</defs>
</svg>
